<svg viewBox="0 0 57 57" fill="none" xmlns="http://www.w3.org/2000/svg"><g fill="white"><path d="M0 0v56h56V0zm43.6 34.5c-.1 1.7-.3 2.7998-.7 3.7998-.4 1-.9 1.9-1.8 2.8001-.9.9-1.7 1.4-2.8 1.8-1 .4-2.1.7-3.8.7-1.7.0999-2.2.1-6.5.1s-4.8-.0001-6.5-.1c-1.7-.1-2.8-.3-3.8-.7-1-.4-1.9-.9-2.8-1.8-.9-.9001-1.4-1.7001-1.8-2.8001-.4-1-.7-2.0998-.7-3.7998-.1-1.7-.1-2.2-.1-6.5s0-4.8.1-6.5c.1-1.7.3-2.8001.7-3.8001.4-1 .9-1.9 1.8-2.8.9-.9 1.7-1.4 2.8-1.8 1-.4 2.1-.7 3.8-.7 1.7-.1 2.2-.1001 6.5-.1001s4.8.0001 6.5.1001c1.7.1 2.8.3 3.8.7 1 .4 1.9.9 2.8 1.8.9.9 1.4 1.7 1.8 2.8.4 1 .7 2.1001.7 3.8001.1 1.7.1 2.2.1 6.5 0 4.2 0 4.8-.1 6.5z"/><path d="M40.19998 18.80008c-.3-.7-.6-1.30005-1.2-1.80005-.5-.5-1.1-.89995-1.8-1.19995-.6-.2-1.4-.5-2.9-.5-1.7-.1-2.2-.1001-6.3-.1001-4.10002 0-4.69995.0001-6.29995.1001-1.5.1-2.40003.3-2.90003.5-.7.3-1.30004.59995-1.80004 1.19995-.5.5-.89996 1.10005-1.19996 1.80005-.2.6-.5 1.3999-.5 2.8999-.1 1.7-.09997 2.20005-.09997 6.30005 0 4.2-.00003 4.7.09997 6.3.1 1.5.3 2.4.5 2.9.3.7.59996 1.3 1.19996 1.8.5.5 1.10004.9 1.80004 1.2.6.2 1.40003.5 2.90003.5 1.7.1 2.19993.1 6.29995.1 4.1 0 4.7 0 6.3-.1 1.5-.1 2.4-.3 2.9-.5.7-.3 1.3-.6 1.8-1.2.5-.5.9-1.1 1.2-1.8.2-.6.5-1.4.5-2.9.1-1.7.1-2.2.1-6.3 0-4.2 0-4.70005-.1-6.30005 0-1.5-.3-2.2999-.5-2.8999zm-12.2 17.30005c-4.40002 0-8.1-3.6001-8.1-8.1001s3.59998-8.1001 8.1-8.1001c4.5 0 8.1 3.6001 8.1 8.1001s-3.7 8.1001-8.1 8.1001zm8.3-14.5c-1 0-1.9-.80015-1.9-1.90015 0-1 .8-1.8999 1.9-1.8999 1.1 0 1.9.7999 1.9 1.8999 0 1-.8 1.90015-1.9 1.90015z"/><path d="M27.99997 33.20005c2.87188 0 5.20002-2.32802 5.20002-5.1999 0-2.87188-2.32814-5.2002-5.20002-5.2002-2.8719 0-5.19996 2.32832-5.19996 5.2002 0 2.87188 2.32807 5.1999 5.19996 5.1999z"/></g></svg>
