<svg viewBox="0 0 57 57" fill="none" xmlns="http://www.w3.org/2000/svg"><path d="M.40002.3999v56H56.4v-56H.40002zM46.8 38.8v.5999c-.2 1.1-.7 2.1001-1.5 2.9001-.9.9001-1.9 1.4-3.1 1.4H16.4c-.8 0-1.5.0001-2.2-.4-.9-.5-1.5-1.1001-2-1.9001-.4-.6-.6-1.3-.9-2V16.6001c.1-.2.1-.4001.2-.6001.2-.9.7-1.6 1.3-2.3.8-.8 1.7-1.4 2.9-1.4h26.7c.2 0 .4-.0001.6.0999 1 .2 1.8.9001 2.5 1.6001.8.9 1.3 2 1.3 3.2v21.6z" fill="white"/><g fill="white"><path d="M44.11088 17.76692c-.2.21484-.4.32216-.6.42958-1 .96679-2 1.93379-3.1 2.90058-.5.42968-.9.8593-1.4 1.289-.8.85936-1.7 1.61136-2.5 2.47073-.5.5371-1 .96657-1.6 1.39625-.9.85937-1.8 1.82616-2.8 2.68552-.6.5371-1.2 1.07421-1.7 1.61132-.4.42968-1.6.42979-2.1.10752-1-.96678-2-1.93357-3-2.9003-.99998-.9668-2.09995-1.93353-3.09995-2.90031-.5-.42969-.90003-.85959-1.40003-1.28927-.8-.75195-1.60002-1.61126-2.40002-2.3632-.6-.64453-1.20005-1.18158-1.80005-1.8261-.6-.5371-1.1999-1.07421-1.8999-1.61132 0 .10742-.1001.10753-.1001.10753v20.732c0 1.39648.90005 2.36348 2.30005 2.36348h25c.2 0 .4-.0001.6-.10753.8-.21484 1.5-1.18163 1.5-2.47068V18.1965c.1 0 .1-.10731.1-.42958z"/><path d="M20.46083 19.34535c1.3 1.18163 2.50005 2.47084 3.80005 3.65247.8.75194 1.60005 1.39647 2.3 2.14841.9.85932 1.9 1.8261 2.8 2.68547.1-.10742.2-.32237.3-.42979 1.4-1.28905 2.7-2.57805 4.1-3.97452.9-.85936 1.9-1.71862 2.9-2.57799 1.4-1.39647 2.9-2.68557 4.3-4.08204.3-.21485.5-.53716.8-.85942H16.96084c.3.32226.60002.64457.90002.85942.8.96678 1.69997 1.82604 2.59997 2.57799z"/></g></svg>